<?xml version="1.0" standalone="no"?>
<!DOCTYPE svg PUBLIC "-//W3C//DTD SVG 20010904//EN"
 "http://www.w3.org/TR/2001/REC-SVG-20010904/DTD/svg10.dtd">
<svg version="1.0" xmlns="http://www.w3.org/2000/svg"
 width="260.000000pt" height="260.000000pt" viewBox="0 0 260.000000 260.000000"
 preserveAspectRatio="xMidYMid meet">
<metadata>
Created by potrace 1.14, written by Peter Selinger 2001-2017
</metadata>
<g transform="translate(0.000000,260.000000) scale(0.100000,-0.100000)"
fill="#000000" stroke="none">
<path d="M0 1300 l0 -1300 1300 0 1300 0 0 1300 0 1300 -1300 0 -1300 0 0
-1300z m1101 808 c36 -39 74 -99 137 -220 57 -109 71 -149 118 -328 9 -36 27
-89 40 -118 13 -29 24 -57 24 -63 0 -6 10 -33 22 -61 l22 -51 75 6 c42 3 96
13 120 22 52 18 142 20 159 3 7 -7 12 -21 12 -33 0 -32 -19 -45 -66 -45 -23 0
-57 -7 -77 -15 -19 -8 -71 -17 -116 -21 -45 -4 -81 -10 -81 -14 0 -4 13 -31
30 -61 16 -30 30 -64 30 -76 0 -13 11 -51 24 -85 13 -35 34 -97 47 -138 12
-41 28 -85 35 -97 8 -12 30 -61 50 -109 20 -48 44 -99 55 -113 10 -14 21 -45
25 -67 5 -36 3 -44 -16 -57 -16 -11 -28 -13 -41 -7 -19 11 -66 99 -106 200
-14 36 -34 79 -43 95 -19 32 -70 177 -70 199 0 7 -11 39 -25 70 -14 31 -25 66
-25 77 0 18 -10 42 -54 125 l-16 31 -77 -4 c-43 -2 -123 -13 -177 -24 -54 -10
-134 -19 -176 -19 -109 0 -140 -8 -140 -33 0 -21 -28 -123 -56 -202 -8 -23
-14 -50 -14 -62 0 -12 -4 -32 -9 -45 -17 -43 -61 -233 -76 -327 -7 -43 -21
-61 -50 -61 -35 0 -47 23 -40 77 11 89 61 301 120 508 19 65 33 120 32 121 -1
1 -42 -9 -92 -22 -49 -13 -123 -29 -163 -35 -65 -9 -76 -8 -93 7 -40 36 -9 70
77 84 33 5 104 21 159 34 55 14 108 26 118 28 20 3 47 64 47 106 0 13 6 35 13
50 8 15 19 61 26 102 7 41 18 98 25 125 7 28 26 102 41 165 15 63 36 133 46
155 10 22 35 78 54 125 53 124 74 141 116 98z"/>
<path d="M1031 1880 c-22 -55 -41 -105 -41 -111 0 -6 -8 -41 -19 -77 -23 -85
-46 -188 -61 -277 -7 -38 -18 -86 -25 -105 -8 -19 -16 -52 -20 -72 l-6 -38 79
0 c44 0 124 9 177 20 53 11 123 20 154 20 31 0 66 3 78 6 21 6 21 8 9 33 -8
14 -17 41 -21 60 -4 18 -16 48 -26 66 -11 17 -24 58 -30 91 -6 32 -17 70 -24
84 -7 14 -18 52 -25 85 -11 55 -136 315 -151 315 -3 0 -25 -45 -48 -100z"/>
</g>
</svg>
